<svg width="36.000000" height="36.000000" viewBox="0 0 36 36" fill="none" xmlns="http://www.w3.org/2000/svg" xmlns:xlink="http://www.w3.org/1999/xlink">
	<desc>
			Created with Pixso.
	</desc>
	<defs>
		<clipPath id="clip18_1013">
			<rect id="协同任务" width="36.000000" height="36.000000" fill="white"/>
		</clipPath>
	</defs>
	<g clip-path="url(#clip18_1013)">
		<path id="path" d="M12.4629 10.0627L23.6733 10.0627C24.2065 10.0627 24.5229 9.61304 24.5229 9.16333L24.5229 6.48145C24.5396 5.99829 24.1733 5.59863 23.6899 5.58179L23.1406 5.58179C22.6074 5.58179 22.291 5.13208 22.291 4.68237C22.2744 3.74951 21.5249 3.0166 20.5918 3L15.6445 3C14.7119 3.0166 13.9624 3.76636 13.9458 4.69897C13.9458 5.26538 13.5293 5.59863 13.0962 5.59863L12.4629 5.59863C11.9302 5.59863 11.6138 6.04834 11.6138 6.49805L11.6138 9.17993C11.6138 9.72949 12.0469 10.0627 12.4629 10.0627ZM18.1768 4.69897C19.2427 4.69897 19.9756 5.59863 19.9756 6.5979C19.9756 7.83057 19.126 8.49683 18.1768 8.49683C17.2271 8.49683 16.3774 7.59741 16.3774 6.5979C16.3774 5.59863 17.2271 4.69897 18.1768 4.69897ZM28.3374 6.7146L27.8047 6.7146C27.2715 6.7146 26.855 7.04785 26.855 7.61401L26.855 11.5286C26.855 12.095 26.4385 12.428 26.0054 12.428L10.2476 12.5281C9.71484 12.5281 9.39795 12.0784 9.39795 11.6284L9.39795 7.71411C9.41455 7.24756 9.04834 6.8479 8.58203 6.81445L8.01562 6.81445C6.63281 6.698 6 7.59741 6 8.83008L6 30.6512C6 31.6674 6.94971 33 8.23193 33L28.021 33C29.0703 33 30.2363 31.7673 30.2363 30.6512L30.2363 8.71338C30.2363 7.71411 29.5034 6.7146 28.3374 6.7146ZM18.8594 25.0044L12.4297 25.0044C11.7803 25.0044 11.2637 24.4714 11.2637 23.8384C11.2637 23.1888 11.7803 22.6724 12.4297 22.6724L18.8594 22.6724C19.5093 22.6724 20.0254 23.1888 20.0254 23.8384C20.0254 24.4714 19.5093 25.0044 18.8594 25.0044ZM23.707 20.3571L12.4297 20.3571C11.7803 20.3904 11.2305 19.8739 11.2139 19.241C11.1807 18.5913 11.6968 18.0417 12.3296 18.0249L23.707 18.0249C24.3564 18.0249 24.873 18.5413 24.873 19.191C24.8896 19.824 24.3564 20.3571 23.707 20.3571Z" fill-rule="nonzero" fill="#FFFFFF"/>
	</g>
</svg>
