<svg width="16.288750" height="16.250000" viewBox="0 0 16.2887 16.25" fill="none" xmlns="http://www.w3.org/2000/svg" xmlns:xlink="http://www.w3.org/1999/xlink">
	<desc>
			Created with Pixso.
	</desc>
	<defs/>
	<path id="path" d="M0 0.735107L0 5.625C0 5.96997 0.279999 6.25 0.625 6.25C0.970001 6.25 1.25 5.96997 1.25 5.625L1.25 2.09619L5.22375 6.07129C5.4575 6.30493 5.83625 6.30493 6.07125 6.07129C6.305 5.83618 6.305 5.45752 6.07125 5.22363L2.09625 1.25L5.625 1.25C5.97 1.25 6.25 0.969971 6.25 0.625C6.25 0.280029 5.97 0 5.625 0L0.735001 0C0.278748 0 0 0.235107 0 0.735107ZM15.5537 0L10.6637 0C10.3187 0 10.0387 0.280029 10.0387 0.625C10.0387 0.969971 10.3187 1.25 10.6637 1.25L14.1925 1.25L10.2175 5.22363C9.98375 5.45752 9.98375 5.83618 10.2175 6.07129C10.4525 6.30493 10.8313 6.30493 11.065 6.07129L15.0387 2.09619L15.0387 5.625C15.0387 5.96997 15.3187 6.25 15.6637 6.25C16.0088 6.25 16.2887 5.96997 16.2887 5.625L16.2887 0.735107C16.2887 0.235107 16.0112 0 15.5537 0ZM0.735001 16.25L5.625 16.25C5.97 16.25 6.25 15.97 6.25 15.625C6.25 15.28 5.97 15 5.625 15L2.09625 15L6.07125 11.0264C6.305 10.7925 6.305 10.4138 6.07125 10.1787C5.83625 9.94507 5.4575 9.94507 5.22375 10.1787L1.25 14.1538L1.25 10.625C1.25 10.28 0.970001 10 0.625 10C0.279999 10 0 10.28 0 10.625L0 15.5149C0 16.0149 0.278748 16.25 0.735001 16.25ZM16.2887 15.5149L16.2887 10.625C16.2887 10.28 16.0088 10 15.6637 10C15.3187 10 15.0387 10.28 15.0387 10.625L15.0387 14.1538L11.065 10.1787C10.8313 9.94507 10.4525 9.94507 10.2175 10.1787C9.98375 10.4138 9.98375 10.7925 10.2175 11.0264L14.1925 15L10.6637 15C10.3187 15 10.0387 15.28 10.0387 15.625C10.0387 15.97 10.3187 16.25 10.6637 16.25L15.5537 16.25C16.0112 16.25 16.2887 16.0149 16.2887 15.5149Z" fill-rule="nonzero" fill="#FFFFFF"/>
</svg>
