<svg width="36.000000" height="36.000000" viewBox="0 0 36 36" fill="none" xmlns="http://www.w3.org/2000/svg" xmlns:xlink="http://www.w3.org/1999/xlink">
	<desc>
			Created with Pixso.
	</desc>
	<defs>
		<clipPath id="clip18_1017">
			<rect id="数据监管" width="36.000000" height="36.000000" fill="white"/>
		</clipPath>
	</defs>
	<g clip-path="url(#clip18_1017)">
		<path id="path" d="M26.1431 30.6428L9.85693 30.6428C9.21436 30.6428 8.78564 31.9286 8.78564 31.9286L8.78564 33L27.2144 33L27.2144 31.7142C27.2144 31.0714 26.7856 30.6428 26.1431 30.6428ZM29.5713 3L6.42871 3C4.5 3 3 4.71423 3 6.64282L3 23.3572C3 25.2858 4.5 27 6.42871 27L14.5713 27L14.5713 28.2858C14.5713 28.9286 15 29.5714 15.6431 29.5714L20.3569 29.5714C21 29.5714 21.4287 28.9286 21.4287 28.2858L21.4287 27L29.5713 27C31.5 27 33 25.2858 33 23.3572L33 6.64282C33 4.71423 31.5 3 29.5713 3ZM6.42871 22.2858C5.78564 22.2858 5.35693 21.6428 5.35693 21L5.35693 6.64282C5.35693 6 5.78564 5.35718 6.42871 5.35718L29.5713 5.35718C30.2144 5.35718 30.6431 6 30.6431 6.64282L30.6431 21C30.6431 21.6428 30.2144 22.2858 29.5713 22.2858L6.42871 22.2858ZM26.3569 8.35718L22.5 12.2142L19.9287 9.64282C19.7144 9.42859 19.2856 9.21423 19.0713 9.21423C18.6431 9.42859 18.4287 9.64282 18.2144 9.85718L14.7856 16.0714L13.2856 12.4286C13.0713 12 12.8569 11.7858 12.4287 11.7858C12 11.7858 11.5713 11.7858 11.3569 12.2142L7.92871 15.6428C7.5 16.0714 7.5 16.9286 7.92871 17.3572C8.35693 17.7858 9.21436 17.7858 9.64307 17.3572L11.7856 15L13.5 19.2858C13.7144 19.7142 13.9287 20.1428 14.3569 20.1428C14.7856 20.1428 15.2144 19.9286 15.4287 19.5L19.2856 12.4286L21.6431 15C22.0713 15.4286 22.9287 15.4286 23.3569 15L28.0713 10.2858C28.5 9.85718 28.5 9 28.0713 8.57141C27.6431 7.92859 26.7856 7.92859 26.3569 8.35718Z" fill-rule="nonzero" fill="#FFFFFF"/>
	</g>
</svg>
