<svg width="36.000000" height="36.000000" viewBox="0 0 36 36" fill="none" xmlns="http://www.w3.org/2000/svg" xmlns:xlink="http://www.w3.org/1999/xlink">
	<desc>
			Created with Pixso.
	</desc>
	<defs>
		<clipPath id="clip18_1002">
			<rect id="机场" width="36.000000" height="36.000000" fill="white"/>
		</clipPath>
	</defs>
	<g clip-path="url(#clip18_1002)">
		<path id="差集" d="M5.7998 15.0791C5.79932 14.8804 5.80371 14.6816 5.81348 14.4834C5.82275 14.2849 5.83691 14.0867 5.85645 13.8889C5.87549 13.6912 5.89941 13.4941 5.92871 13.2974C5.95752 13.1008 5.99121 12.9053 6.02979 12.7102C6.06885 12.5154 6.1123 12.3215 6.16016 12.1289C6.2085 11.936 6.26172 11.7446 6.31934 11.5544C6.37695 11.3645 6.43945 11.1758 6.50635 10.9888C6.57324 10.8018 6.64502 10.6165 6.72119 10.4329C6.75928 10.3413 6.79834 10.25 6.83887 10.1592C6.87891 10.0684 6.92041 9.97827 6.96289 9.88843C7.04834 9.70898 7.1377 9.53174 7.23145 9.35645C7.32568 9.1814 7.42383 9.00879 7.52637 8.83862C7.57715 8.75366 7.62939 8.66919 7.68262 8.58569L7.68311 8.58496C7.73633 8.50122 7.79053 8.41821 7.84619 8.33569C7.95703 8.1709 8.07178 8.00879 8.19043 7.84937C8.30908 7.69019 8.43164 7.53394 8.55811 7.38062C8.68457 7.22754 8.81494 7.07739 8.94873 6.93066C9.08252 6.78394 9.22021 6.64038 9.36133 6.50049C9.50195 6.3606 9.64648 6.22412 9.79443 6.09131C9.94189 5.95825 10.0928 5.82935 10.2471 5.70386C10.4009 5.57837 10.5581 5.45703 10.7183 5.33936C10.8784 5.22168 11.0415 5.10815 11.207 4.99854C11.373 4.88892 11.5415 4.78369 11.7124 4.68237C11.8833 4.58105 12.0566 4.48413 12.2324 4.3916C12.4082 4.29883 12.5859 4.21045 12.7661 4.12671C12.9463 4.04272 13.1284 3.96338 13.3125 3.88867C13.4966 3.81372 13.6821 3.74341 13.8696 3.67773C14.0571 3.61206 14.2461 3.55103 14.4365 3.49463C14.5312 3.4668 14.6265 3.43994 14.7217 3.41431L14.7231 3.41382L14.7231 3.41382C14.8193 3.38794 14.9155 3.36328 15.0122 3.33984C15.2051 3.29321 15.3994 3.25098 15.5947 3.21387C15.7896 3.17651 15.9858 3.14404 16.1826 3.11646C16.2808 3.10278 16.3789 3.09033 16.4775 3.07886C16.5762 3.06763 16.6753 3.05737 16.7744 3.04858C16.9722 3.03076 17.1704 3.01782 17.3691 3.00977C17.5674 3.00171 17.7661 2.99878 17.9648 3.00049C18.1646 3.00049 18.3638 3.00513 18.563 3.01489C18.7622 3.02466 18.9614 3.03931 19.1597 3.05884C19.3584 3.07837 19.5562 3.10278 19.7534 3.13208C19.9512 3.16113 20.1475 3.19531 20.3433 3.23413C20.5391 3.27319 20.7334 3.31689 20.9268 3.36548C21.0234 3.38965 21.1196 3.41504 21.2153 3.44141L21.2163 3.44165C21.3125 3.46826 21.4082 3.49609 21.5034 3.52515C21.6943 3.58301 21.8838 3.64575 22.0718 3.71313C22.2593 3.78027 22.4453 3.85229 22.6299 3.92871C22.7207 3.96631 22.8105 4.00488 22.9004 4.04492L22.9033 4.04614L22.9058 4.04712C22.9966 4.0874 23.0869 4.12891 23.1768 4.17139C23.3569 4.25684 23.5352 4.34668 23.7109 4.44092C23.8867 4.53516 24.0601 4.63354 24.2314 4.73633C24.4023 4.83887 24.5708 4.9458 24.7363 5.05688C24.9023 5.16797 25.0654 5.28296 25.2256 5.40186C25.3853 5.521 25.5425 5.6438 25.6968 5.77075C25.8506 5.89746 26.0015 6.02783 26.1489 6.16211C26.2969 6.29639 26.4409 6.43408 26.582 6.57544C26.7227 6.71655 26.8599 6.86133 26.9937 7.00928C27.1274 7.15747 27.2573 7.30859 27.3838 7.46313C27.5103 7.61768 27.6323 7.77515 27.751 7.93555C27.8696 8.09595 27.9839 8.25928 28.0947 8.42554C28.2051 8.59155 28.3115 8.76025 28.4136 8.93164C28.5156 9.10303 28.6138 9.27686 28.7075 9.45288C28.8008 9.62915 28.8901 9.80737 28.9751 9.98804C29.0601 10.1685 29.1401 10.3511 29.2163 10.5356C29.292 10.7202 29.3633 10.9065 29.4302 11.0945C29.4634 11.1887 29.4961 11.2834 29.5269 11.3787L29.5269 11.3787C29.5581 11.4731 29.5879 11.5679 29.6162 11.6631C29.6738 11.8542 29.7261 12.0466 29.7739 12.2402C29.8223 12.4338 29.8652 12.6287 29.9033 12.8245C29.9229 12.9233 29.9409 13.0225 29.958 13.1218L29.958 13.1233C29.9746 13.2202 29.9897 13.3171 30.0039 13.4143C30.0327 13.6118 30.0562 13.8098 30.0752 14.0083C30.0942 14.207 30.1079 14.406 30.1172 14.6052C30.1265 14.8047 30.1304 15.0039 30.1299 15.2036C30.1299 20.6826 26.1167 25.7876 17.9648 30.1465C9.81299 26.0391 5.7998 21.0554 5.7998 15.0791ZM18 10C15.2383 10 13 12.2385 13 15C13 17.7615 15.2383 20 18 20C20.7612 20 23 17.7615 23 15C23 12.2385 20.7612 10 18 10Z" clip-rule="evenodd" fill-rule="evenodd" fill="#FFFFFF" fill-opacity="1.000000"/>
		<path id="path" d="M14.5 32.8586C12.3457 32.5569 11 32.0544 11 31.4514C11 30.8792 12.2671 30.3469 14.1694 30.0332C14.5 30 17.2998 31.3716 18 31.3716C18.7002 31.3716 20.7998 30 21.814 30C23.7256 30.2837 25 30.7769 25 31.3511C25 31.9543 23.6543 32.4568 21.5 32.7578C20.314 32.9241 18.9648 33 17.6318 33C16.5869 33.0002 15.543 32.9531 14.5 32.8586Z" fill-rule="nonzero" fill="#FFFFFF"/>
	</g>
</svg>
