<svg width="36.000000" height="36.000000" viewBox="0 0 36 36" fill="none" xmlns="http://www.w3.org/2000/svg" xmlns:xlink="http://www.w3.org/1999/xlink">
	<desc>
			Created with Pixso.
	</desc>
	<defs>
		<clipPath id="clip18_1019">
			<rect id="系统" width="36.000000" height="36.000000" fill="white"/>
		</clipPath>
	</defs>
	<g clip-path="url(#clip18_1019)">
		<path id="path" d="M29.5396 20.6865C28.0703 18.1421 28.9541 14.8813 31.5122 13.3998L28.7607 8.63403C27.9746 9.09485 27.0605 9.35913 26.0854 9.35913C23.145 9.35913 20.7612 6.95984 20.7612 4L15.2583 4C15.2656 4.91357 15.0376 5.83972 14.5483 6.68652C13.0796 9.23108 9.81348 10.0964 7.25146 8.62134L4.5 13.3872C5.29199 13.8375 5.97803 14.4969 6.46582 15.3417C7.93213 17.8821 7.05371 21.1364 4.50488 22.6212L7.25635 27.387C8.03955 26.9304 8.94922 26.6691 9.91943 26.6691C12.8506 26.6691 15.228 29.0532 15.2437 32L20.7466 32C20.7441 31.0956 20.9727 30.1797 21.4565 29.3417C22.9233 26.8013 26.1807 25.9348 28.7412 27.3999L31.4927 22.6343C30.7061 22.184 30.0244 21.5269 29.5396 20.6865ZM18.0063 23.6693C14.875 23.6693 12.3369 21.1311 12.3369 18C12.3369 14.8689 14.875 12.3307 18.0063 12.3307C21.1372 12.3307 23.6753 14.8689 23.6753 18C23.6753 21.1311 21.1372 23.6693 18.0063 23.6693Z" fill-rule="nonzero" fill="#FFFFFF"/>
	</g>
</svg>
