<svg width="36.000000" height="36.000000" viewBox="0 0 36 36" fill="none" xmlns="http://www.w3.org/2000/svg" xmlns:xlink="http://www.w3.org/1999/xlink">
	<desc>
			Created with Pixso.
	</desc>
	<defs>
		<clipPath id="clip18_1009">
			<rect id="重置、刷新" width="36.000000" height="36.000000" fill="white"/>
		</clipPath>
	</defs>
	<g clip-path="url(#clip18_1009)">
		<path id="path" d="M31.7251 17.175L34.5 12.75L27.2998 14.3999L31.7251 17.175ZM4.2749 18.825L1.5 23.25L8.7002 21.6001L4.2749 18.825Z" fill-rule="nonzero" fill="#FFFFFF"/>
		<path id="path" d="M18 5.25C23.4751 5.25 28.125 8.69995 29.9253 13.5C30.0752 13.95 30.5254 14.25 30.9751 14.25L32.4751 14.25C30.8252 7.80005 24.9751 3 18 3C10.4253 3 4.125 8.625 3.15039 15.9751C3.0752 16.6499 3.6001 17.25 4.27539 17.25C4.80029 17.25 5.3252 16.875 5.40039 16.2749C6.2251 10.05 11.5503 5.25 18 5.25ZM31.7251 18.75C31.2002 18.75 30.6753 19.125 30.6001 19.7251C29.7754 25.95 24.4502 30.75 18 30.75C12.5254 30.75 7.875 27.3 6.0752 22.5C5.92529 22.05 5.4751 21.75 5.02539 21.75L3.52539 21.75C5.17529 28.2 11.0254 33 18 33C25.5752 33 31.875 27.375 32.8501 20.0249C32.9253 19.3501 32.4004 18.75 31.7251 18.75Z" fill-rule="nonzero" fill="#FFFFFF"/>
		<path id="差集" d="M18 8C12.4771 8 8 12.4771 8 18C8 23.5229 12.4771 28 18 28C23.5229 28 28 23.5229 28 18C28 12.4771 23.5229 8 18 8ZM20.8203 23L23 23L23 13L20.8203 13L20.8203 17.0249L15.1885 17.0249L15.1885 13L13 13L13 23L15.1885 23L15.1885 18.6475L20.8203 18.6475L20.8203 23Z" clip-rule="evenodd" fill-rule="evenodd" fill="#FFFFFF" fill-opacity="1.000000"/>
	</g>
</svg>
