<svg width="36.000000" height="36.000000" viewBox="0 0 36 36" fill="none" xmlns="http://www.w3.org/2000/svg" xmlns:xlink="http://www.w3.org/1999/xlink">
	<desc>
			Created with Pixso.
	</desc>
	<defs>
		<clipPath id="clip18_1011">
			<rect id="航班" width="36.000000" height="36.000000" fill="white"/>
		</clipPath>
	</defs>
	<g clip-path="url(#clip18_1011)">
		<path id="path" d="M7.09766 27.1044L30.1538 27.1044C30.8774 27.1044 31.4653 27.6892 31.4653 28.4128C31.4653 29.1364 30.8804 29.7245 30.1572 29.7245L7.09766 29.7245C6.37402 29.7245 5.78564 29.1396 5.78564 28.4161C5.78564 27.6926 6.37061 27.1044 7.09424 27.1044L7.09766 27.1044ZM33.8433 13.7083C33.8828 13.7693 33.915 13.8339 33.9399 13.9022C33.9653 13.9705 33.9824 14.0406 33.9917 14.1127C34.001 14.1848 34.0024 14.2571 33.9956 14.3295C33.9893 14.4019 33.9746 14.4727 33.9521 14.5417C33.9297 14.611 33.8999 14.6768 33.8628 14.7393C33.8252 14.8018 33.7817 14.8594 33.7319 14.9122C33.6816 14.965 33.6265 15.0116 33.5659 15.052C33.5059 15.0925 33.4414 15.1257 33.3735 15.152L9.46191 22.9186C8.48291 23.2311 7.41016 22.947 6.71484 22.1884L2.19482 17.4261C1.79395 17.0034 2.05127 16.2648 2.60742 16.2397L3.32764 16.2046C3.70703 16.1846 4.08496 16.2732 4.41748 16.4586L7.3501 18.1112C7.96484 18.4622 8.70312 18.5156 9.36328 18.2583L14.1509 16.3984L8.23193 8.05029C7.80762 7.32678 8.12012 6.35925 8.86865 6.09192C9.36182 5.9281 9.8999 5.98499 10.3477 6.2489C11.8096 7.00427 17.8203 11.8768 19.6196 13.3439C19.9473 13.6146 20.3569 13.77 20.7812 13.785L20.8696 13.785L27.4702 11.2151C27.8257 11.0757 28.1938 10.9854 28.5732 10.9442C28.9531 10.9032 29.332 10.9127 29.709 10.9728C30.1323 11.0366 30.5439 11.1455 30.9434 11.2991C31.3433 11.4528 31.7212 11.6477 32.0781 11.8839C32.4355 12.1201 32.7627 12.3921 33.0601 12.6998C33.3579 13.0074 33.6191 13.3436 33.8433 13.7083Z" fill-rule="nonzero" fill="#FFFFFF"/>
	</g>
</svg>
