<svg width="36.000000" height="36.000000" viewBox="0 0 36 36" fill="none" xmlns="http://www.w3.org/2000/svg" xmlns:xlink="http://www.w3.org/1999/xlink">
	<desc>
			Created with Pixso.
	</desc>
	<defs>
		<clipPath id="clip18_1015">
			<rect id="视频" width="36.000000" height="36.000000" fill="white"/>
		</clipPath>
	</defs>
	<g clip-path="url(#clip18_1015)">
		<path id="path" d="M10.123 9.49255L10.123 26.8137L25.8188 26.8137L25.8188 9.49255L10.123 9.49255ZM7.97266 9.49255L4.49561 9.49255L4.49561 12.8605L7.97266 12.8605L7.97266 9.49255ZM7.97266 15.3464L4.49561 15.3464L4.49561 20.3108L7.97266 20.3108L7.97266 15.3464ZM7.97266 22.8115L4.49561 22.8115L4.49561 26.8285L7.97266 26.8285L7.97266 22.8115ZM21.7871 16.9868C22.1074 17.2273 22.2974 17.6066 22.2827 18.0074C22.2974 18.4086 22.1074 18.7875 21.7871 19.028L16.6699 22.5707C16.3633 22.782 15.9551 22.782 15.6489 22.5854C15.3135 22.345 15.124 21.9657 15.1392 21.5648L15.1392 14.4644C15.1392 14.0341 15.3433 13.6477 15.6489 13.4437C15.9551 13.2324 16.3711 13.2395 16.6699 13.4585C16.6768 13.4437 21.7871 16.9868 21.7871 16.9868ZM31.4976 13.2834L31.4976 9.5L28.02 9.5L28.02 13.2834L31.4976 13.2834ZM31.4976 15.6453L28.02 15.6453L28.02 20.3691L31.4976 20.3691L31.4976 15.6453ZM31.4976 22.7166L28.02 22.7166L28.02 26.8137L31.4976 26.8137L31.4976 22.7166ZM31.4976 30.5972L4.50244 30.5972C3.25586 30.5972 2.25 29.4673 2.25 28.0747L2.25 7.92529C2.25 6.52576 3.25635 5.40283 4.50244 5.40283L31.4971 5.40283C32.7437 5.40283 33.7495 6.53271 33.7495 7.92529L33.7495 28.0891C33.7354 29.4744 32.7295 30.5972 31.4976 30.5972Z" fill-rule="nonzero" fill="#FFFFFF"/>
	</g>
</svg>
